<svg id="Group_551" data-name="Group 551" xmlns="http://www.w3.org/2000/svg" xmlns:xlink="http://www.w3.org/1999/xlink" width="160" height="117.742" viewBox="0 0 160 117.742">
  <defs>
    <clipPath id="clip-path">
      <rect id="Rectangle_197" data-name="Rectangle 197" width="160" height="117.742" fill="none"/>
    </clipPath>
  </defs>
  <g id="Group_550" data-name="Group 550" clip-path="url(#clip-path)">
    <path id="Path_502" data-name="Path 502" d="M231.653,64.479a1.123,1.123,0,0,1-.9-1.8l5.825-7.725a28.92,28.92,0,1,1,12.557,2.862,1.123,1.123,0,0,1,0-2.247,26.639,26.639,0,1,0-10.378-2.095,1.123,1.123,0,0,1,.459,1.711l-6.67,8.846a1.123,1.123,0,0,1-.9.447" transform="translate(-118.047)" fill="#fff"/>
    <path id="Path_503" data-name="Path 503" d="M268.735,65.215a1.125,1.125,0,0,1-.794-.329l-9.339-9.34a6.2,6.2,0,0,1,8.766-8.767l1.367,1.368L270.1,46.78a6.2,6.2,0,0,1,8.766,8.767l-9.34,9.34a1.125,1.125,0,0,1-.794.329m-5.751-18a3.952,3.952,0,0,0-2.794,6.747l8.545,8.546,8.545-8.546a3.952,3.952,0,1,0-5.589-5.589l-2.162,2.162a1.122,1.122,0,0,1-1.588,0l-2.162-2.162a3.926,3.926,0,0,0-2.795-1.157" transform="translate(-137.643 -24.103)" fill="#fff"/>
    <path id="Path_504" data-name="Path 504" d="M95.737,65.951a1.119,1.119,0,0,1-.491-.112,33.408,33.408,0,0,0-4.988-1.825c-.33-.1-.667-.206-1.011-.313a1.124,1.124,0,0,1-.787-1.072V51.493a1.123,1.123,0,0,1,.425-.879l.055-.047a20.11,20.11,0,0,0,5.282-7.7,1.122,1.122,0,0,1,.593-.617,5.2,5.2,0,0,0,2.522-2.715c.045-.115.088-.238.123-.362a2.532,2.532,0,0,0-.041-1.77,2.685,2.685,0,0,0-.9-.871c-.068-.043-.133-.082-.2-.116a1.123,1.123,0,0,1-.614-1.062V35.34a26.074,26.074,0,0,0-2.2-3.214,14.087,14.087,0,0,0-2.39-2.34,9.988,9.988,0,0,0-1.764-1.071,25.376,25.376,0,0,0-3.891-1.333,20.026,20.026,0,0,1-5.8-2.344c-.737-.485-1.536-.934-2.309-1.368-.826-.464-1.681-.945-2.5-1.486a22.006,22.006,0,0,1-2.1-1.582,44.3,44.3,0,0,1-2.507,4.624,43.486,43.486,0,0,0-2.271,4.14c-.245.526-.478,1.065-.712,1.65a18.549,18.549,0,0,0-1.352,4.515,1.124,1.124,0,0,1-.6.87,2.88,2.88,0,0,0-1.126,1,2.7,2.7,0,0,0,.084,2.132c.042.107.088.209.137.312a5.153,5.153,0,0,0,2.355,2.391,1.124,1.124,0,0,1,.585.616,19.833,19.833,0,0,0,5.406,7.814,1.124,1.124,0,0,1,.395.855V62.629a1.123,1.123,0,0,1-.792,1.073c-.548.169-1.068.32-1.568.464a24.917,24.917,0,0,0-4,1.406,1.118,1.118,0,0,1-.86.044l-.054-.021a18.455,18.455,0,0,1-8.677-6.039,19.987,19.987,0,0,1-3.049-9.642,22.451,22.451,0,0,1,1.6-7.38c.288-.85.586-1.728.831-2.585a55.8,55.8,0,0,0,1.545-9.234,61.725,61.725,0,0,1,1.437-8.948,16.844,16.844,0,0,1,3.88-6.977,19.928,19.928,0,0,1,6.165-4.5c.293-.159.592-.32.895-.487.058-.032.114-.062.167-.094.544-.313,1.038-.642,1.562-.991a16.884,16.884,0,0,1,3.136-1.772,14.774,14.774,0,0,1,6.08-1.043c9.274.4,17.277,5.955,19.916,13.814,1.22,3.634,1.367,7.471,1.509,11.182a60.816,60.816,0,0,0,.532,6.956c.238,1.521.606,3.066.962,4.561.343,1.437.7,2.924.947,4.426.545,3.267.329,8.421-.972,11.39a14.9,14.9,0,0,1-7.924,7.526c-.07.032-.177.073-.283.113a1.154,1.154,0,0,1-.412.076M90.706,61.8l.213.066A38.5,38.5,0,0,1,95.771,63.6a12.6,12.6,0,0,0,6.528-6.271c1.119-2.551,1.294-7.239.814-10.119-.238-1.426-.582-2.874-.916-4.274-.366-1.538-.745-3.126-1-4.736a62.519,62.519,0,0,1-.558-7.215c-.142-3.716-.277-7.225-1.394-10.553C96.94,13.56,89.586,8.509,81.364,8.15a12.539,12.539,0,0,0-5.15.885,14.954,14.954,0,0,0-2.723,1.555c-.53.354-1.08.72-1.668,1.057-.06.037-.147.084-.229.129-.3.166-.605.33-.9.491a17.9,17.9,0,0,0-5.538,4,14.725,14.725,0,0,0-3.4,6.074,60.059,60.059,0,0,0-1.376,8.624,57.442,57.442,0,0,1-1.618,9.607c-.26.908-.567,1.813-.863,2.687a20.484,20.484,0,0,0-1.48,6.64,17.864,17.864,0,0,0,2.6,8.309,16.037,16.037,0,0,0,7.273,5.139,29.344,29.344,0,0,1,3.9-1.333c.241-.07.487-.141.738-.215V52.03a22.231,22.231,0,0,1-5.485-7.958A7.511,7.511,0,0,1,62.4,40.826c-.077-.157-.146-.313-.207-.47a4.859,4.859,0,0,1,.014-3.991,4.808,4.808,0,0,1,1.56-1.648,22.457,22.457,0,0,1,1.418-4.53c.251-.63.5-1.209.764-1.773a45.959,45.959,0,0,1,2.378-4.343,36.765,36.765,0,0,0,2.981-5.793,1.123,1.123,0,0,1,1.843-.377,18.758,18.758,0,0,0,2.952,2.411c.745.5,1.527.934,2.354,1.4.806.453,1.64.922,2.443,1.45a18.032,18.032,0,0,0,5.174,2.059,27.506,27.506,0,0,1,4.231,1.46,12.3,12.3,0,0,1,2.164,1.312,16.332,16.332,0,0,1,2.778,2.713,29.162,29.162,0,0,1,2.561,3.78,1.088,1.088,0,0,1,.118.283,4.693,4.693,0,0,1,1.481,1.594,4.627,4.627,0,0,1,.209,3.423c-.053.19-.121.386-.193.571a7.477,7.477,0,0,1-3.278,3.737A22.1,22.1,0,0,1,90.706,52Zm12.622-4.018h0Z" transform="translate(-29.034 -3.159)" fill="#fff"/>
    <path id="Path_505" data-name="Path 505" d="M102.433,172.282a1.123,1.123,0,0,1-1.116-1c0-.017,0-.034-.006-.051s0-.017,0-.026l0-.015h0c0-.018,0-.036,0-.052h0l-.008-.064c0-.01-.008-.063-.009-.074l-.034-.27q-.007-.04-.011-.081l-.009-.061c0-.01-.005-.039-.008-.062s0-.027-.007-.041l-.031-.226c-.045-.315-.1-.694-.171-1.128l-.017-.107c-.019-.11-.037-.224-.058-.341-.024-.147-.049-.288-.075-.432l-.013-.072c-.029-.182-.061-.354-.094-.533q-.148-.812-.345-1.768l-.036-.174c-.061-.294-.126-.6-.193-.908l-.068-.3c-.046-.205-.092-.414-.142-.626l-.166-.709c-.071-.306-.146-.607-.222-.912l-.162-.64c-.273-1.068-.582-2.186-.919-3.321-.043-.149-.087-.291-.13-.435-.114-.379-.222-.735-.337-1.1l-.836-2.517c-.121-.349-.244-.695-.37-1.044l-.374-1.014c-.347-.925-.712-1.85-1.085-2.75-.083-.2-.168-.4-.253-.6l-.461-1.067c-.071-.16-.142-.321-.216-.483-.169-.377-.336-.745-.509-1.115q-.4-.86-.831-1.722c-.084-.171-.168-.339-.253-.506-.095-.188-.189-.373-.286-.56-.137-.266-.277-.534-.419-.8l-.02-.038c-.148-.278-.3-.559-.452-.837l-.164-.3c-.249-.446-.512-.91-.786-1.377-.051-.09-.093-.162-.137-.234-.166-.284-.326-.548-.486-.812q-.188-.312-.383-.623c-.117-.188-.232-.373-.348-.554l-.052-.085-.1-.159c-.119-.184-.238-.369-.359-.552l-.071-.111c-.31-.466-.65-.968-1-1.467l-.113-.161c-.179-.255-.354-.5-.533-.747-.135-.186-.266-.366-.4-.544s-.268-.357-.4-.535c-.151-.2-.3-.395-.451-.588-.126-.163-.252-.32-.377-.477s-.251-.316-.373-.465q-.382-.47-.771-.93c-.181-.212-.365-.426-.548-.638q-.215-.248-.438-.493l-.041-.048q-.227-.251-.459-.5c-.012-.012-.027-.029-.038-.042-.128-.14-.257-.277-.385-.415l-.437-.46c-.2-.206-.4-.41-.6-.615-.161-.163-.324-.325-.488-.486l-.5-.487c-.131-.126-.26-.247-.389-.367L80,126.39c-.146-.135-.29-.27-.438-.4-.458-.422-.922-.831-1.422-1.256-.111-.095-.218-.186-.326-.274-.293-.245-.579-.477-.867-.706-.13-.1-.255-.2-.378-.3-.174-.138-.338-.264-.5-.387s-.336-.256-.5-.377c-.109-.081-.209-.156-.31-.228l-.4-.286c-.208-.149-.413-.292-.618-.434s-.415-.286-.625-.425c-.259-.176-.51-.338-.763-.5l-.056-.036c-.13-.084-.26-.167-.391-.247l-.023-.015c-.124-.078-.222-.139-.319-.2-.135-.085-.249-.155-.362-.223l-.045-.026c-1.162-.7-2.387-1.367-3.64-1.981a48.856,48.856,0,0,0-7.786-3,1.123,1.123,0,0,1-.809-1.078v-8.761a12.733,12.733,0,0,1-7.661,2.989c-2.973,0-5.415-1.406-7.634-3.04v8.812a1.123,1.123,0,0,1-.809,1.078,49.073,49.073,0,0,0-7.308,2.775c-1.4.664-2.786,1.408-4.123,2.211-.234.142-.47.285-.7.432-.119.074-.227.142-.337.213-.253.161-.5.318-.734.477s-.469.314-.7.469q-.367.252-.728.511c-.188.134-.37.264-.548.4-.294.212-.567.419-.837.628-.222.171-.439.341-.656.514s-.424.34-.632.513c-.258.212-.509.423-.758.636-.073.06-.128.106-.18.154-.278.239-.526.459-.772.682-.085.075-.154.137-.223.2-.166.149-.326.3-.483.445-.1.093-.189.174-.273.258-.17.161-.325.31-.478.459-.1.09-.173.167-.249.243q-.814.8-1.63,1.674c-.2.218-.4.435-.6.655-.323.358-.639.715-.949,1.077q-.3.356-.6.717c-.116.137-.221.264-.321.391-.149.179-.276.337-.4.494l-.274.348c-.11.137-.212.268-.311.4-.163.211-.324.423-.482.634-.176.233-.346.462-.513.692-.1.14-.2.271-.292.4s-.184.255-.27.377-.177.251-.259.374-.164.234-.235.338c-.123.176-.231.336-.34.5-.262.389-.518.778-.767,1.166l-.027.042c-.109.17-.218.34-.325.512-.123.194-.238.379-.352.564s-.225.368-.338.556l-.5.848c-.168.289-.337.582-.5.876l-.067.12c-.127.227-.253.453-.378.681-.08.143-.154.279-.225.414-.4.737-.767,1.445-1.1,2.112-.142.284-.28.562-.415.842l-.045.092c-.124.258-.241.5-.355.745-.09.19-.175.374-.259.558l-.252.553q-.214.471-.415.932c-.09.207-.18.417-.269.625l-.054.128c-.045.1-.077.179-.108.254-.119.282-.231.55-.34.817-.065.158-.126.31-.187.462l-.035.087q-.331.815-.627,1.611c-.072.185-.137.358-.2.53q-.189.512-.369,1.01c-.107.3-.209.592-.309.885q-.3.877-.578,1.723c-.11.335-.213.664-.314.991-.049.156-.1.309-.142.461-.331,1.081-.641,2.166-.925,3.234l-.131.5c-.262,1-.5,1.962-.694,2.847-.073.316-.139.621-.2.917l-.019.09c-.057.259-.109.514-.161.761l-.185.931c-.052.269-.1.5-.136.723l-.152.846c-.132.766-.228,1.4-.295,1.872l-.081.6c-.032.252-.046.383-.047.392a1.123,1.123,0,0,1-2.235-.231s.016-.151.053-.439l.027-.217.008-.059.05-.356c.085-.6.188-1.258.306-1.941l.017-.1c.024-.137.048-.277.076-.422l.064-.353c.04-.219.086-.458.134-.707l.2-.992q.079-.381.165-.784l.02-.09c.066-.3.134-.617.207-.937.2-.9.443-1.887.71-2.915l.134-.507c.291-1.1.609-2.209.945-3.306.045-.154.1-.315.146-.477.1-.335.212-.676.323-1.019.185-.574.384-1.164.59-1.762.1-.3.21-.607.32-.913.121-.337.246-.68.374-1.026.067-.182.137-.368.209-.554.2-.536.417-1.092.643-1.651l.033-.082c.064-.159.127-.317.193-.476.109-.27.225-.548.344-.83.032-.078.071-.167.109-.257l.062-.144q.136-.322.278-.648c.14-.317.28-.635.425-.953l.256-.562c.089-.194.178-.386.271-.58q.175-.372.359-.753c.017-.038.041-.089.068-.138.122-.254.265-.542.411-.834.341-.686.721-1.417,1.127-2.169.076-.142.157-.293.241-.443.123-.225.252-.455.381-.687l.069-.125c.175-.31.349-.613.528-.919l.512-.864c.117-.195.233-.385.351-.577s.24-.386.362-.58c.108-.173.222-.352.336-.529l.026-.041c.258-.4.523-.806.794-1.208.115-.171.231-.342.351-.515.071-.105.155-.227.24-.347s.175-.255.272-.392.187-.264.286-.4.195-.272.3-.413c.169-.233.347-.474.531-.718.162-.215.329-.435.5-.653.109-.142.219-.284.332-.425l.276-.35c.131-.166.27-.339.413-.51.1-.123.218-.27.341-.415.2-.238.406-.488.619-.736q.485-.567.988-1.121.309-.342.625-.682c.565-.607,1.134-1.192,1.691-1.737.084-.085.18-.18.28-.273.144-.141.307-.3.47-.452.089-.087.194-.186.3-.282.154-.147.329-.306.5-.464.077-.071.16-.146.245-.22.246-.222.508-.455.775-.683.056-.052.141-.124.226-.194.242-.207.505-.43.771-.647.215-.178.438-.359.662-.537s.451-.356.68-.533c.288-.223.582-.445.881-.661.177-.133.375-.276.573-.416.247-.178.5-.359.764-.537.24-.163.48-.326.724-.487s.5-.33.761-.494c.113-.073.233-.148.358-.226.238-.151.488-.3.737-.453,1.4-.842,2.854-1.621,4.318-2.316a51.08,51.08,0,0,1,6.834-2.659V102.9a1.123,1.123,0,0,1,1.852-.854q.251.214.511.416l.176.137c2.3,1.789,4.586,3.391,7.341,3.391,2.882,0,5.244-1.63,7.175-3.224q.445-.367.871-.74a1.123,1.123,0,0,1,1.862.846v10.3a51.1,51.1,0,0,1,7.335,2.9c1.3.636,2.569,1.326,3.776,2.052l.032.019c.144.085.285.172.427.262.089.052.2.123.315.194h0l.032.02c.143.087.285.178.426.269l.055.035c.27.173.538.346.8.525.211.139.432.291.651.443s.429.3.643.451c.032.022.067.048.1.077l.3.219c.106.076.222.161.335.246.17.125.348.259.524.4s.343.262.518.4c.124.1.265.206.4.316.295.234.6.479.894.728.111.091.232.193.353.3.518.441,1,.869,1.479,1.306.155.141.309.285.466.431h0l.039.038c.133.124.267.249.4.376l.262.253c.048.045.107.1.167.161l.084.083c.175.171.348.343.518.515q.315.318.624.638l.457.482c.132.142.263.282.393.425.025.026.05.054.071.079.142.153.309.338.476.522l.039.045c.148.164.294.328.438.494.188.218.376.437.562.656q.408.479.8.965c.126.154.253.313.38.473.141.176.272.342.4.509.155.2.312.4.467.609q.207.271.417.553t.413.564c.183.251.367.51.549.77.041.057.085.119.129.184.35.5.7,1.018,1.045,1.536l.028.044.046.072c.1.157.226.346.348.535l.122.189.034.056c.128.2.249.392.367.584.133.212.267.43.4.647.166.275.333.549.492.824.047.077.1.172.157.267.271.463.543.942.81,1.42l.161.293c.15.272.3.55.448.828l.023.041c.151.285.3.573.449.858.1.192.2.383.294.576.087.172.174.346.259.518.295.589.581,1.183.855,1.772q.265.569.519,1.137c.074.161.149.331.224.5l.475,1.1c.088.206.175.412.261.62.383.923.757,1.873,1.114,2.821.064.17.126.339.189.509l.2.539c.127.357.253.709.374,1.059l.857,2.577c.119.376.231.742.34,1.107.052.17.1.32.142.473.343,1.158.661,2.3.941,3.4l.164.647c.08.319.157.631.227.934l.17.727c.05.214.1.43.146.641l.069.309c.071.329.137.635.2.934l.037.178c.135.654.253,1.26.354,1.813.036.193.07.381.1.565l.011.056c.027.153.053.3.077.445.021.116.041.24.061.361l.017.107c.073.454.131.847.177,1.169l.03.219c.006.033.01.064.013.1l0,.026.011.071v.012c0,.014,0,.028.006.042l.039.313-1.109.179,1.116-.127.013.107.007.055a.762.762,0,0,1,.01.1,1.166,1.166,0,0,1,.007.123,1.123,1.123,0,0,1-1.123,1.123m.178-1.18-.181.021.112,0,.135-.024Zm-.194-.093-.785.092.238,0Zm-1.2-.507,0,.015,0-.015" transform="translate(0 -54.54)" fill="#fff"/>
    <path id="Path_506" data-name="Path 506" d="M102.43,191.038a1.123,1.123,0,0,1-1.115-1.006c-.037-.354-3.99-35.419-29.233-50.949a72.293,72.293,0,0,1-40.609,0c-25.245,15.53-29.2,50.594-29.234,50.949A1.123,1.123,0,0,1,.006,189.8a87.634,87.634,0,0,1,5.258-20.357C9.2,159.216,16.815,145.271,30.735,136.9a1.124,1.124,0,0,1,.9-.115,70.158,70.158,0,0,0,40.295,0,1.12,1.12,0,0,1,.9.115c7.682,4.618,18.337,14.011,25.469,32.538a87.639,87.639,0,0,1,5.257,20.356,1.123,1.123,0,0,1-1,1.233,1.134,1.134,0,0,1-.118.006" transform="translate(0 -73.296)" fill="#fff"/>
    <path id="Path_507" data-name="Path 507" d="M113.287,197.79a1.123,1.123,0,0,1-1.123-1.123v-46.2a1.123,1.123,0,1,1,2.247,0v46.2a1.123,1.123,0,0,1-1.123,1.123" transform="translate(-60.121 -80.048)" fill="#fff"/>
    <path id="Path_508" data-name="Path 508" d="M103.839,157.849a1.663,1.663,0,1,1,1.663-1.663,1.666,1.666,0,0,1-1.663,1.663m0-2.247a.583.583,0,1,0,.583.583.584.584,0,0,0-.583-.583" transform="translate(-54.767 -82.826)" fill="#fff"/>
    <path id="Path_509" data-name="Path 509" d="M103.839,183.833a1.664,1.664,0,1,1,1.663-1.664,1.666,1.666,0,0,1-1.663,1.664m0-2.247a.583.583,0,1,0,.583.583.584.584,0,0,0-.583-.583" transform="translate(-54.767 -96.754)" fill="#fff"/>
    <path id="Path_510" data-name="Path 510" d="M103.839,235.8a1.664,1.664,0,1,1,1.663-1.663,1.666,1.666,0,0,1-1.663,1.663m0-2.247a.583.583,0,1,0,.583.583.584.584,0,0,0-.583-.583" transform="translate(-54.767 -124.61)" fill="#fff"/>
    <path id="Path_511" data-name="Path 511" d="M103.839,209.818a1.664,1.664,0,1,1,1.663-1.664,1.666,1.666,0,0,1-1.663,1.664m0-2.247a.583.583,0,1,0,.583.583.584.584,0,0,0-.583-.583" transform="translate(-54.767 -110.682)" fill="#fff"/>
    <path id="Path_512" data-name="Path 512" d="M89.591,70.343c-3.464,0-6.205-1.908-8.716-3.862l-.178-.138c-.2-.159-.4-.318-.593-.483a22.012,22.012,0,0,1-5.879-8.3A7.513,7.513,0,0,1,71.2,54.311c-.077-.157-.145-.313-.207-.471A4.856,4.856,0,0,1,71,49.849a4.8,4.8,0,0,1,1.56-1.648,22.47,22.47,0,0,1,1.418-4.53c.251-.63.5-1.208.764-1.772a45.9,45.9,0,0,1,2.378-4.343,36.811,36.811,0,0,0,2.981-5.793,1.123,1.123,0,0,1,1.842-.377A18.782,18.782,0,0,0,84.9,33.8c.746.495,1.526.934,2.354,1.4.806.453,1.64.922,2.443,1.45a18.04,18.04,0,0,0,5.174,2.059,27.545,27.545,0,0,1,4.232,1.46,12.322,12.322,0,0,1,2.164,1.312,16.344,16.344,0,0,1,2.777,2.713,29.077,29.077,0,0,1,2.561,3.78,1.094,1.094,0,0,1,.118.283,4.687,4.687,0,0,1,1.48,1.595,4.623,4.623,0,0,1,.211,3.419,5.98,5.98,0,0,1-.2.575,7.476,7.476,0,0,1-3.278,3.737A21.972,21.972,0,0,1,99.2,65.751l-.1.089q-.442.385-.9.765c-2.106,1.74-4.99,3.739-8.6,3.739M81.559,34.086a44.351,44.351,0,0,1-2.507,4.624,43.381,43.381,0,0,0-2.271,4.14c-.245.526-.479,1.065-.712,1.65a18.56,18.56,0,0,0-1.353,4.515,1.122,1.122,0,0,1-.6.87,2.873,2.873,0,0,0-1.126,1,2.7,2.7,0,0,0,.084,2.132c.042.107.087.209.137.312a5.152,5.152,0,0,0,2.355,2.391,1.122,1.122,0,0,1,.585.616,19.841,19.841,0,0,0,5.406,7.814q.252.214.512.417l.176.137c2.3,1.789,4.586,3.391,7.342,3.391,2.881,0,5.244-1.63,7.175-3.224q.445-.367.871-.74l.04-.033.056-.047a20.112,20.112,0,0,0,5.282-7.7,1.128,1.128,0,0,1,.593-.617,5.2,5.2,0,0,0,2.522-2.715,3.827,3.827,0,0,0,.123-.363l0-.008a2.521,2.521,0,0,0-.044-1.762,2.671,2.671,0,0,0-.9-.871,2.276,2.276,0,0,0-.2-.116,1.123,1.123,0,0,1-.614-1.062v-.011a25.973,25.973,0,0,0-2.2-3.214,14.067,14.067,0,0,0-2.39-2.34A10.043,10.043,0,0,0,98.149,42.2a25.371,25.371,0,0,0-3.891-1.333,20.019,20.019,0,0,1-5.8-2.343c-.737-.485-1.536-.934-2.309-1.369-.826-.464-1.681-.945-2.5-1.486a21.925,21.925,0,0,1-2.1-1.582" transform="translate(-37.826 -16.644)" fill="#fff"/>
  </g>
</svg>
