<svg id="Group_594" data-name="Group 594" xmlns="http://www.w3.org/2000/svg" xmlns:xlink="http://www.w3.org/1999/xlink" width="160" height="118.965" viewBox="0 0 160 118.965">
  <defs>
    <clipPath id="clip-path">
      <rect id="Rectangle_215" data-name="Rectangle 215" width="160" height="118.965" fill="none"/>
    </clipPath>
  </defs>
  <g id="Group_594-2" data-name="Group 594" clip-path="url(#clip-path)">
    <path id="Path_1222" data-name="Path 1222" d="M232.6,64.3a1.12,1.12,0,0,1-.893-1.794l5.809-7.7a28.839,28.839,0,1,1,12.521,2.854,1.12,1.12,0,1,1,0-2.24,26.563,26.563,0,1,0-10.348-2.089,1.12,1.12,0,0,1,.458,1.706L233.5,63.85a1.119,1.119,0,0,1-.9.446" transform="translate(-118.863 0)" fill="#fff"/>
    <path id="Path_1223" data-name="Path 1223" d="M71.053,38.982a1.105,1.105,0,0,1-.394-.072,1.12,1.12,0,0,1-.7-.8c-.048-.206-.1-.425-.17-.627A9.369,9.369,0,0,0,69.3,36.4c-.142-.286-.283-.571-.408-.862a18.453,18.453,0,0,1-.79-2.254,17.7,17.7,0,0,1,1.52-13.661,13.255,13.255,0,0,1,3.5-4.307,5.79,5.79,0,0,1,.645-.4,10,10,0,0,1,3.378-.888c.539-.076,1.052-.147,1.516-.259.118-.079.33-.227.521-.361,1.734-1.218,5.34-3.752,8.321-4.094a19.407,19.407,0,0,1,10.911,2.3,17.734,17.734,0,0,1,6.476,5.162c2.789,3.786,3.759,9.231,2.965,16.647h0a17.775,17.775,0,0,1-1.161,4.7,1.12,1.12,0,0,1-1.641.534,2.474,2.474,0,0,0-.727-.325,1.12,1.12,0,0,1-.867-1.14l.007-.167c-1.309-.515-1.715-2.026-2.08-3.384-.586-2.183-1.315-4.9-4.943-6.964-1.374-.782-4.752-1.277-8.018-1.756-3.892-.57-6.847-1.045-8.688-1.86a22.619,22.619,0,0,1-2.411,7.72,41.13,41.13,0,0,1-3.882,5.395c.007.306.017.657.029,1.027a1.119,1.119,0,0,1-.868,1.128,2.666,2.666,0,0,0-.9.443,1.118,1.118,0,0,1-.657.213m33.26-1.785h0m-.813-.875h0Zm-14.25-24.87a12.961,12.961,0,0,0-1.488.085c-2.416.277-5.831,2.677-7.289,3.7a3.672,3.672,0,0,1-1.1.661,16.646,16.646,0,0,1-1.913.345,8.275,8.275,0,0,0-2.642.65,3.553,3.553,0,0,0-.394.244,11.37,11.37,0,0,0-2.851,3.593,15.475,15.475,0,0,0-1.307,11.946,16.238,16.238,0,0,0,.693,1.978c.1.234.214.464.328.694a2.216,2.216,0,0,1,.381-.542,38.845,38.845,0,0,0,3.745-5.19,20.209,20.209,0,0,0,2.215-8.739,1.12,1.12,0,0,1,2.173-.431c.435,1,5.976,1.817,8.953,2.253,3.631.532,7.061,1.035,8.8,2.025a12.034,12.034,0,0,1,6,8.329c.411,1.532.578,1.889.89,1.906a1.393,1.393,0,0,1,.818.321,15.633,15.633,0,0,0,.37-2.1c.731-6.833-.1-11.766-2.541-15.08a15.552,15.552,0,0,0-5.676-4.488,18.356,18.356,0,0,0-8.164-2.163M106.744,33.3h0Z" transform="translate(-36.211 -4.95)" fill="#fff"/>
    <path id="Path_1224" data-name="Path 1224" d="M89.842,71.715c-3.772,0-6.664-2.131-9.3-4.313l-.23-.194a22.184,22.184,0,0,1-5.97-8.5,7.347,7.347,0,0,1-3.978-4.052,4.843,4.843,0,0,1,.012-3.983,4.627,4.627,0,0,1,1.392-1.53,5.531,5.531,0,0,1,.817-.491c-.006-.24-.011-.462-.015-.663a1.4,1.4,0,0,1,.468-.995,38.862,38.862,0,0,0,3.746-5.19A20.211,20.211,0,0,0,79,33.066a1.12,1.12,0,0,1,2.172-.431c.436,1,5.976,1.817,8.953,2.254,3.631.532,7.061,1.035,8.8,2.025a12.031,12.031,0,0,1,6,8.329c.411,1.532.578,1.889.891,1.906a1.389,1.389,0,0,1,1.039.556,1.155,1.155,0,0,1,.091.137,1.405,1.405,0,0,1,.164.8v.017a5.313,5.313,0,0,1,.52.29,4.287,4.287,0,0,1,1.691,5.71,7.359,7.359,0,0,1-3.966,4.047,22.252,22.252,0,0,1-5.931,8.468c-.1.088-.193.165-.283.238-2.631,2.174-5.524,4.3-9.293,4.3M74.815,48.359c.007.306.017.657.029,1.027a1.12,1.12,0,0,1-.868,1.128,2.653,2.653,0,0,0-.9.443,2.448,2.448,0,0,0-.718.746,2.69,2.69,0,0,0,.081,2.129,4.86,4.86,0,0,0,3.016,2.883,1.118,1.118,0,0,1,.776.691,20.047,20.047,0,0,0,5.537,8.105l.206.174c2.313,1.913,4.836,3.79,7.864,3.79s5.55-1.877,7.877-3.8c.084-.068.157-.131.231-.194a20.106,20.106,0,0,0,5.5-8.077,1.12,1.12,0,0,1,.771-.69,4.873,4.873,0,0,0,3.01-2.88v0a2.678,2.678,0,0,0,.081-2.127,2.625,2.625,0,0,0-.891-.868,2.455,2.455,0,0,0-.725-.324,1.12,1.12,0,0,1-.867-1.141l.007-.166c-1.309-.515-1.715-2.026-2.08-3.384-.586-2.182-1.315-4.9-4.943-6.963-1.374-.782-4.752-1.277-8.018-1.756-3.892-.57-6.847-1.045-8.688-1.86a22.622,22.622,0,0,1-2.411,7.72,41.209,41.209,0,0,1-3.882,5.395m30.867,1.026h0m-.813-.875h0Z" transform="translate(-37.581 -17.138)" fill="#fff"/>
    <path id="Path_1225" data-name="Path 1225" d="M92.64,115.954a1.12,1.12,0,0,1-1.119-1.12v-9.785a1.119,1.119,0,0,1,1.845-.853l.2.167c2.321,1.919,4.844,3.795,7.871,3.795s5.55-1.876,7.876-3.8c.086-.07.166-.137.244-.2a1.12,1.12,0,0,1,1.846.853v9.523a1.12,1.12,0,1,1-2.24,0v-7.19c-2.222,1.675-4.69,3.058-7.727,3.058a12.682,12.682,0,0,1-7.678-3.021v7.455a1.12,1.12,0,0,1-1.12,1.12" transform="translate(-49.177 -55.822)" fill="#fff"/>
    <path id="Path_1226" data-name="Path 1226" d="M180.44,190.545a1.12,1.12,0,0,1-1.112-1,88.543,88.543,0,0,0-6-22.034c-4.474-10.758-13.13-25.069-28.961-32.15a1.12,1.12,0,1,1,.915-2.044c16.523,7.391,25.51,22.239,30.139,33.394a89,89,0,0,1,6.139,22.6,1.12,1.12,0,0,1-1,1.23,1.132,1.132,0,0,1-.118.006" transform="translate(-77.214 -71.58)" fill="#fff"/>
    <path id="Path_1227" data-name="Path 1227" d="M1.6,190.64a1.132,1.132,0,0,1-.118-.006,1.12,1.12,0,0,1-1-1.23A89,89,0,0,1,6.6,166.873c4.606-11.127,13.548-25.95,29.984-33.382a1.12,1.12,0,1,1,.923,2.041c-15.748,7.121-24.361,21.408-28.813,32.14a88.529,88.529,0,0,0-5.976,21.965,1.12,1.12,0,0,1-1.112,1" transform="translate(-0.258 -71.675)" fill="#fff"/>
    <path id="Path_1228" data-name="Path 1228" d="M111.422,140.492a1.12,1.12,0,0,1-.323-2.193l.611-.207a1.12,1.12,0,1,1,.719,2.12l-.648.22a1.118,1.118,0,0,1-.359.06" transform="translate(-59.268 -74.168)" fill="#fff"/>
    <path id="Path_1229" data-name="Path 1229" d="M180.142,190.625a1.12,1.12,0,0,1-1.112-1,88.527,88.527,0,0,0-5.98-21.974c-4.455-10.735-13.073-25.026-28.832-32.14a1.12,1.12,0,0,1,.922-2.041c16.448,7.426,25.394,22.253,30,33.383a89.015,89.015,0,0,1,6.114,22.54,1.12,1.12,0,0,1-1,1.23,1.136,1.136,0,0,1-.118.006" transform="translate(-77.138 -71.662)" fill="#fff"/>
    <path id="Path_1230" data-name="Path 1230" d="M1.121,190.556A1.136,1.136,0,0,1,1,190.55a1.12,1.12,0,0,1-1-1.23,89.016,89.016,0,0,1,6.135-22.591c4.626-11.151,13.607-26,30.117-33.392a1.12,1.12,0,1,1,.916,2.044c-15.819,7.087-24.469,21.394-28.94,32.148a88.551,88.551,0,0,0-6,22.024,1.12,1.12,0,0,1-1.112,1" transform="translate(0 -71.593)" fill="#fff"/>
    <path id="Path_1231" data-name="Path 1231" d="M88.359,139.784a1.118,1.118,0,0,1-.731-.272,144.168,144.168,0,0,1-11.036-10.642l-.042-.045c-.433-.467-.651-.712-.651-.712a1.12,1.12,0,0,1,.138-1.622l6-4.772a1.12,1.12,0,0,1,1.594.2c.421.562.862,1.108,1.311,1.623,4.064,4.651,7.986,5.8,8.151,5.85a1.19,1.19,0,0,1,.681,1.681l-4.428,8.12a1.12,1.12,0,0,1-.782.565,1.139,1.139,0,0,1-.2.019M78.373,127.5c1.519,1.631,5.143,5.415,9.67,9.407l3.173-5.818a22.95,22.95,0,0,1-7.965-6.065c-.239-.273-.475-.556-.708-.843Z" transform="translate(-40.631 -65.273)" fill="#fff"/>
    <path id="Path_1232" data-name="Path 1232" d="M111.391,140.819a1.121,1.121,0,0,1-.986-.589l-.031-.058a1.12,1.12,0,0,1,.575-1.573l.061-.022a1.215,1.215,0,0,1,.688-.022,1.031,1.031,0,0,1,.776.6,1.106,1.106,0,0,1-.065,1.019l-.031.058a1.121,1.121,0,0,1-.986.589" transform="translate(-59.235 -74.428)" fill="#fff"/>
    <path id="Path_1233" data-name="Path 1233" d="M115.855,139.785a1.124,1.124,0,0,1-.983-.584l-4.428-8.12a1.119,1.119,0,0,1-.136-.569c0-.011,0-.021,0-.031a1.119,1.119,0,0,1,.814-1.079c.064-.019.244-.073.52-.178l.027-.011a20.286,20.286,0,0,0,7.856-5.954c.365-.429.721-.876,1.06-1.331a1.119,1.119,0,0,1,1.595-.206l6,4.773a1.12,1.12,0,0,1,.137,1.624s-.215.24-.613.67l-.059.063a143.249,143.249,0,0,1-11.056,10.662,1.117,1.117,0,0,1-.731.272m-2.857-8.7,3.172,5.817c4.529-3.991,8.137-7.758,9.67-9.406l-4.171-3.32q-.217.269-.439.529A23.187,23.187,0,0,1,113,131.087" transform="translate(-59.271 -65.273)" fill="#fff"/>
    <path id="Path_1234" data-name="Path 1234" d="M111.391,140.818a1.121,1.121,0,0,1-.986-.589l-.031-.058a1.12,1.12,0,0,1,.575-1.573,1.066,1.066,0,0,1,.169-.052,1.165,1.165,0,0,1,.576.007,1.032,1.032,0,0,1,.781.6,1.106,1.106,0,0,1-.065,1.019l-.031.058a1.121,1.121,0,0,1-.986.589" transform="translate(-59.235 -74.427)" fill="#fff"/>
    <path id="Path_1235" data-name="Path 1235" d="M111.36,193.466h0a1.12,1.12,0,0,1-1.119-1.121l.031-52.573a1.12,1.12,0,0,1,1.12-1.12h0a1.12,1.12,0,0,1,1.119,1.121l-.032,52.573a1.12,1.12,0,0,1-1.12,1.12" transform="translate(-59.235 -74.502)" fill="#fff"/>
    <path id="Path_1236" data-name="Path 1236" d="M271.964,57.536a3.511,3.511,0,0,1-3.319-1.725,3.348,3.348,0,0,1,.349-3.3,6.921,6.921,0,0,1,2.781-2.408,7.38,7.38,0,0,1,2.694-.767,1.157,1.157,0,1,1,.173,2.307,5.046,5.046,0,0,0-1.838.532,4.658,4.658,0,0,0-1.852,1.568,1.176,1.176,0,0,0-.236,1.034c.248.5,1.705.715,3.335-.1a3.593,3.593,0,0,0,2.136-2.314V37.134l-11.168-2.588V49.332c-.074,1.617-1.416,3.3-3.418,4.3a6.933,6.933,0,0,1-3.6.764,3.084,3.084,0,0,1-2.489-5,6.921,6.921,0,0,1,2.781-2.408,7.389,7.389,0,0,1,2.694-.767,1.157,1.157,0,0,1,.174,2.307,5.038,5.038,0,0,0-1.838.532,4.655,4.655,0,0,0-1.852,1.568.836.836,0,0,0,.73,1.469,4.686,4.686,0,0,0,2.368-.531,3.594,3.594,0,0,0,2.136-2.314V31.636l15.8,3.66v17.16c-.074,1.617-1.416,3.3-3.418,4.3a7.086,7.086,0,0,1-3.117.781" transform="translate(-136.951 -16.999)" fill="#fff"/>
    <path id="Path_1237" data-name="Path 1237" d="M286.439,46.62a1.158,1.158,0,0,1-.262-.03L272.7,43.466a1.157,1.157,0,0,1,.522-2.254L286.7,44.335a1.157,1.157,0,0,1-.26,2.284" transform="translate(-146.045 -22.128)" fill="#fff"/>
  </g>
</svg>
